<svg width="386" height="673" viewBox="0 0 386 673" fill="none" xmlns="http://www.w3.org/2000/svg">
<circle cx="191.581" cy="610.234" r="61.8739" fill="#132743"/>
<ellipse cx="192.847" cy="203.928" rx="151.063" ry="136.072" fill="#FCFDFF"/>
<path d="M192.533 2.16309C86.1716 2.16309 0.313721 88.0211 0.313721 194.382C0.313721 322.529 192.293 514.455 192.293 514.455C192.293 514.455 384.752 322.529 384.752 194.382C384.752 88.0211 298.894 2.16309 192.533 2.16309ZM192.533 66.2362C263.654 66.2362 320.679 123.902 320.679 194.382C320.679 265.504 263.654 322.529 192.533 322.529C122.053 322.529 64.3868 265.504 64.3868 194.382C64.3868 123.902 122.053 66.2362 192.533 66.2362Z" fill="#FFB5B5"/>
<path d="M385.738 192.995C385.738 299.046 258.434 446.891 192.293 514.455C439.991 -228.264 30.251 343.536 0.270264 192.995C0.270264 86.944 86.5601 0.972656 193.004 0.972656C299.448 0.972656 385.738 86.944 385.738 192.995Z" fill="#132743"/>
</svg>
