<svg width="16" height="16" viewBox="0 0 16 16" fill="none" xmlns="http://www.w3.org/2000/svg">
<g clip-path="url(#clip0_357_3007)">
<path d="M12.3333 0H3.66667C2.69453 0.00105878 1.76252 0.387707 1.07511 1.07511C0.387707 1.76252 0.00105878 2.69453 0 3.66667L0 12.3333C0.00105878 13.3055 0.387707 14.2375 1.07511 14.9249C1.76252 15.6123 2.69453 15.9989 3.66667 16H12.3333C13.3055 15.9989 14.2375 15.6123 14.9249 14.9249C15.6123 14.2375 15.9989 13.3055 16 12.3333V3.66667C15.9989 2.69453 15.6123 1.76252 14.9249 1.07511C14.2375 0.387707 13.3055 0.00105878 12.3333 0V0ZM14 12.3333C14 12.7754 13.8244 13.1993 13.5118 13.5118C13.1993 13.8244 12.7754 14 12.3333 14H3.66667C3.22464 14 2.80072 13.8244 2.48816 13.5118C2.17559 13.1993 2 12.7754 2 12.3333V3.66667C2 3.22464 2.17559 2.80072 2.48816 2.48816C2.80072 2.17559 3.22464 2 3.66667 2H12.3333C12.7754 2 13.1993 2.17559 13.5118 2.48816C13.8244 2.80072 14 3.22464 14 3.66667V12.3333Z" fill="#132743"/>
</g>
<defs>
<clipPath id="clip0_357_3007">
<rect width="16" height="16" fill="white"/>
</clipPath>
</defs>
</svg>
