<svg width="16" height="16" viewBox="0 0 16 16" fill="none" xmlns="http://www.w3.org/2000/svg">
<g clip-path="url(#clip0_1132_6747)">
<path d="M12.4442 4.50933C12.3881 4.50152 12.3321 4.50152 12.276 4.50933C11.0342 4.47026 10.0488 3.47773 10.0488 2.25857C10.0488 1.01597 11.0823 0 12.3641 0C13.6379 0 14.6794 1.00815 14.6794 2.25857C14.6714 3.47773 13.686 4.47026 12.4442 4.50933Z" fill="#132743"/>
<path d="M15.0577 9.92562C14.1604 10.5118 12.9026 10.7306 11.741 10.5821C12.0454 9.94125 12.2056 9.23008 12.2137 8.47982C12.2137 7.69831 12.0374 6.95587 11.7009 6.30722C12.8866 6.15091 14.1444 6.36974 15.0497 6.95587C16.3154 7.76865 16.3154 9.10503 15.0577 9.92562Z" fill="#132743"/>
<path d="M3.5604 4.50933C3.61648 4.50152 3.67255 4.50152 3.72863 4.50933C4.97039 4.47026 5.95578 3.47773 5.95578 2.25857C5.95578 1.00815 4.92232 0 3.64051 0C2.36671 0 1.33325 1.00815 1.33325 2.25857C1.33325 3.47773 2.31864 4.47026 3.5604 4.50933Z" fill="#132743"/>
<path d="M3.64915 8.47997C3.64915 9.23804 3.81739 9.95703 4.12182 10.6057C2.99222 10.7229 1.81456 10.4885 0.94934 9.93359C-0.316447 9.113 -0.316447 7.77661 0.94934 6.95602C1.80655 6.39333 3.01626 6.16669 4.15386 6.29174C3.8254 6.94821 3.64915 7.69065 3.64915 8.47997Z" fill="#132743"/>
<path d="M8.11103 10.8397C8.04694 10.8319 7.97484 10.8319 7.90274 10.8397C6.42865 10.7928 5.25098 9.61272 5.25098 8.15911C5.25899 6.67423 6.48473 5.4707 8.01489 5.4707C9.53704 5.4707 10.7708 6.67423 10.7708 8.15911C10.7628 9.61272 9.59312 10.7928 8.11103 10.8397Z" fill="#132743"/>
<path d="M5.50738 12.4577C4.29767 13.2471 4.29767 14.5444 5.50738 15.3259C6.88534 16.2246 9.14453 16.2246 10.5225 15.3259C11.7322 14.5366 11.7322 13.2393 10.5225 12.4577C9.15254 11.559 6.89335 11.559 5.50738 12.4577Z" fill="#132743"/>
</g>
<defs>
<clipPath id="clip0_1132_6747">
<rect width="16" height="16" fill="white"/>
</clipPath>
</defs>
</svg>
