<svg width="16" height="16" viewBox="0 0 16 16" fill="none" xmlns="http://www.w3.org/2000/svg">
<g clip-path="url(#clip0_2242_15079)">
<path d="M6.67133 2L5.33333 1.99067C5.33087 1.46185 5.11906 0.955539 4.74426 0.582483C4.36945 0.209426 3.86215 -5.75817e-06 3.33333 1.18739e-10L2 1.1874e-10C1.46957 1.1874e-10 0.960859 0.210714 0.585786 0.585786C0.210714 0.960859 0 1.46957 0 2L0 3.33333C-1.44175e-06 3.86296 0.210072 4.37096 0.584136 4.7459C0.9582 5.12084 1.46571 5.3321 1.99533 5.33333L1.986 6.662C1.98539 6.7496 2.00204 6.83647 2.03502 6.91763C2.068 6.9988 2.11665 7.07266 2.17819 7.13501C2.23974 7.19736 2.31296 7.24697 2.39369 7.281C2.47442 7.31502 2.56106 7.33281 2.64867 7.33333H2.65267C2.82867 7.33334 2.99754 7.26374 3.12243 7.13972C3.24732 7.01571 3.3181 6.84733 3.31933 6.67133L3.32867 5.33333H3.33333C3.86377 5.33333 4.37247 5.12262 4.74755 4.74755C5.12262 4.37247 5.33333 3.86377 5.33333 3.33333V3.324L6.662 3.33333H6.66667C6.75421 3.33364 6.84097 3.3167 6.92197 3.28348C7.00297 3.25026 7.07663 3.20141 7.13875 3.13972C7.20088 3.07803 7.25024 3.00471 7.28403 2.92394C7.31781 2.84318 7.33536 2.75655 7.33567 2.669C7.33597 2.58145 7.31903 2.4947 7.28581 2.4137C7.25259 2.3327 7.20374 2.25903 7.14205 2.19691C7.08037 2.13479 7.00704 2.08543 6.92628 2.05164C6.84551 2.01785 6.75888 2.00031 6.67133 2ZM4 3.33333C4 3.51014 3.92976 3.67971 3.80474 3.80474C3.67971 3.92976 3.51014 4 3.33333 4H2C1.82319 4 1.65362 3.92976 1.5286 3.80474C1.40357 3.67971 1.33333 3.51014 1.33333 3.33333V2C1.33333 1.82319 1.40357 1.65362 1.5286 1.5286C1.65362 1.40357 1.82319 1.33333 2 1.33333H3.33333C3.51014 1.33333 3.67971 1.40357 3.80474 1.5286C3.92976 1.65362 4 1.82319 4 2V3.33333Z" fill="#374957"/>
<path d="M13.9997 0H12.6664C12.1368 -1.44175e-06 11.6288 0.210072 11.2538 0.584136C10.8789 0.9582 10.6676 1.46571 10.6664 1.99533L9.33707 1.986H9.33307C9.15626 1.98538 8.98644 2.05503 8.86098 2.17961C8.73552 2.3042 8.66469 2.47352 8.66407 2.65033C8.66345 2.82714 8.73309 2.99696 8.85768 3.12242C8.98227 3.24788 9.15159 3.31871 9.3284 3.31933L10.6664 3.32867V3.33333C10.6664 3.86377 10.8771 4.37247 11.2522 4.74755C11.6273 5.12262 12.136 5.33333 12.6664 5.33333H12.6757L12.6664 6.662C12.6658 6.74955 12.6824 6.83636 12.7154 6.91748C12.7483 6.9986 12.7969 7.07244 12.8584 7.13478C12.9198 7.19712 12.993 7.24674 13.0736 7.28081C13.1543 7.31487 13.2409 7.33272 13.3284 7.33333H13.3331C13.5091 7.33334 13.6779 7.26374 13.8028 7.13972C13.9277 7.01571 13.9985 6.84733 13.9997 6.67133L14.0091 5.33333C14.5379 5.33087 15.0442 5.11906 15.4173 4.74426C15.7903 4.36945 15.9997 3.86215 15.9997 3.33333V2C15.9997 1.46957 15.789 0.960859 15.4139 0.585786C15.0389 0.210714 14.5302 0 13.9997 0V0ZM14.6664 3.33333C14.6664 3.51014 14.5962 3.67971 14.4711 3.80474C14.3461 3.92976 14.1765 4 13.9997 4H12.6664C12.4896 4 12.32 3.92976 12.195 3.80474C12.07 3.67971 11.9997 3.51014 11.9997 3.33333V2C11.9997 1.82319 12.07 1.65362 12.195 1.5286C12.32 1.40357 12.4896 1.33333 12.6664 1.33333H13.9997C14.1765 1.33333 14.3461 1.40357 14.4711 1.5286C14.5962 1.65362 14.6664 1.82319 14.6664 2V3.33333Z" fill="#374957"/>
<path d="M14.0044 10.666L14.0137 9.33668C14.0143 9.24913 13.9975 9.16234 13.9645 9.08125C13.9315 9.00017 13.8828 8.92638 13.8213 8.8641C13.7598 8.80183 13.6866 8.75228 13.6059 8.71829C13.5252 8.6843 13.4386 8.66654 13.3511 8.66602H13.3471C13.1711 8.66601 13.0022 8.73561 12.8773 8.85962C12.7524 8.98364 12.6816 9.15201 12.6804 9.32801L12.6711 10.666H12.6664C12.136 10.666 11.6273 10.8767 11.2522 11.2518C10.8771 11.6269 10.6664 12.1356 10.6664 12.666V12.6753L9.33773 12.666H9.33307C9.15626 12.6654 8.98644 12.735 8.86098 12.8596C8.73552 12.9842 8.66469 13.1535 8.66407 13.3303C8.66345 13.5072 8.73309 13.677 8.85768 13.8024C8.98227 13.9279 9.15159 13.9987 9.3284 13.9993L10.6664 14.0087C10.6689 14.5375 10.8807 15.0438 11.2555 15.4169C11.6303 15.7899 12.1376 15.9993 12.6664 15.9993H13.9997C14.5302 15.9993 15.0389 15.7886 15.4139 15.4136C15.789 15.0385 15.9997 14.5298 15.9997 13.9993V12.666C15.9997 12.1364 15.7897 11.6284 15.4156 11.2534C15.0415 10.8785 14.534 10.6672 14.0044 10.666ZM14.6664 13.9993C14.6664 14.1762 14.5962 14.3457 14.4711 14.4707C14.3461 14.5958 14.1765 14.666 13.9997 14.666H12.6664C12.4896 14.666 12.32 14.5958 12.195 14.4707C12.07 14.3457 11.9997 14.1762 11.9997 13.9993V12.666C11.9997 12.4892 12.07 12.3196 12.195 12.1946C12.32 12.0696 12.4896 11.9993 12.6664 11.9993H13.9997C14.1765 11.9993 14.3461 12.0696 14.4711 12.1946C14.5962 12.3196 14.6664 12.4892 14.6664 12.666V13.9993Z" fill="#374957"/>
<path d="M6.67133 12.68L5.33333 12.6707V12.666C5.33333 12.1356 5.12262 11.6269 4.74755 11.2518C4.37247 10.8767 3.86377 10.666 3.33333 10.666H3.324L3.33333 9.33735C3.33395 9.2498 3.31731 9.16299 3.28438 9.08187C3.25144 9.00075 3.20285 8.92691 3.14138 8.86457C3.0799 8.80223 3.00675 8.75261 2.9261 8.71854C2.84545 8.68448 2.75888 8.66663 2.67133 8.66602H2.66667C2.49066 8.66601 2.3218 8.73561 2.1969 8.85962C2.07201 8.98364 2.00123 9.15201 2 9.32801L1.99067 10.666C1.46185 10.6685 0.955539 10.8803 0.582483 11.2551C0.209426 11.6299 -5.75817e-06 12.1372 1.18739e-10 12.666L1.1874e-10 13.9993C1.1874e-10 14.5298 0.210714 15.0385 0.585786 15.4136C0.960859 15.7886 1.46957 15.9993 2 15.9993H3.33333C3.86296 15.9993 4.37096 15.7893 4.7459 15.4152C5.12084 15.0411 5.3321 14.5336 5.33333 14.004L6.66267 14.0133H6.66667C6.84348 14.014 7.01329 13.9443 7.13875 13.8197C7.26422 13.6951 7.33505 13.5258 7.33567 13.349C7.33629 13.1722 7.26664 13.0024 7.14205 12.8769C7.01747 12.7515 6.84814 12.6806 6.67133 12.68ZM4 13.9993C4 14.1762 3.92976 14.3457 3.80474 14.4707C3.67971 14.5958 3.51014 14.666 3.33333 14.666H2C1.82319 14.666 1.65362 14.5958 1.5286 14.4707C1.40357 14.3457 1.33333 14.1762 1.33333 13.9993V12.666C1.33333 12.4892 1.40357 12.3196 1.5286 12.1946C1.65362 12.0696 1.82319 11.9993 2 11.9993H3.33333C3.51014 11.9993 3.67971 12.0696 3.80474 12.1946C3.92976 12.3196 4 12.4892 4 12.666V13.9993Z" fill="#374957"/>
</g>
<defs>
<clipPath id="clip0_2242_15079">
<rect width="16" height="16" fill="white"/>
</clipPath>
</defs>
</svg>
