<svg width="16" height="16" viewBox="0 0 16 16" fill="none" xmlns="http://www.w3.org/2000/svg">
<g clip-path="url(#clip0_2242_15088)">
<path d="M12.6667 0.666504H3.33333C2.4496 0.667562 1.60237 1.01909 0.97748 1.64398C0.352588 2.26888 0.00105857 3.11611 0 3.99984L0 9.33317C0.00105857 10.2169 0.352588 11.0641 0.97748 11.689C1.60237 12.3139 2.4496 12.6654 3.33333 12.6665H7.33333V13.9998H4.66667C4.48986 13.9998 4.32029 14.0701 4.19526 14.1951C4.07024 14.3201 4 14.4897 4 14.6665C4 14.8433 4.07024 15.0129 4.19526 15.1379C4.32029 15.2629 4.48986 15.3332 4.66667 15.3332H11.3333C11.5101 15.3332 11.6797 15.2629 11.8047 15.1379C11.9298 15.0129 12 14.8433 12 14.6665C12 14.4897 11.9298 14.3201 11.8047 14.1951C11.6797 14.0701 11.5101 13.9998 11.3333 13.9998H8.66667V12.6665H12.6667C13.5504 12.6654 14.3976 12.3139 15.0225 11.689C15.6474 11.0641 15.9989 10.2169 16 9.33317V3.99984C15.9989 3.11611 15.6474 2.26888 15.0225 1.64398C14.3976 1.01909 13.5504 0.667562 12.6667 0.666504ZM3.33333 1.99984H12.6667C13.1971 1.99984 13.7058 2.21055 14.0809 2.58562C14.456 2.9607 14.6667 3.4694 14.6667 3.99984V8.6665H1.33333V3.99984C1.33333 3.4694 1.54405 2.9607 1.91912 2.58562C2.29419 2.21055 2.8029 1.99984 3.33333 1.99984ZM12.6667 11.3332H3.33333C2.92116 11.3315 2.51958 11.2024 2.18353 10.9638C1.84749 10.7251 1.59339 10.3884 1.456 9.99984H14.544C14.4066 10.3884 14.1525 10.7251 13.8165 10.9638C13.4804 11.2024 13.0788 11.3315 12.6667 11.3332Z" fill="#374957"/>
</g>
<defs>
<clipPath id="clip0_2242_15088">
<rect width="16" height="16" fill="white"/>
</clipPath>
</defs>
</svg>
