<svg width="100" height="24" viewBox="0 0 100 24" fill="none" xmlns="http://www.w3.org/2000/svg">
<rect x="5.71436" y="18.2856" width="82.2857" height="2.85714" rx="1.42857" fill="#FFB5B5"/>
<ellipse cx="5.70104" cy="18.1564" rx="1.84386" ry="1.84386" fill="#132743"/>
<ellipse cx="5.73878" cy="6.04815" rx="4.50172" ry="4.05498" fill="#FCFDFF"/>
<path d="M5.7294 0.0356445C2.55981 0.0356445 0.0012207 2.59423 0.0012207 5.76383C0.0012207 9.58262 5.72224 15.3021 5.72224 15.3021C5.72224 15.3021 11.4576 9.58262 11.4576 5.76383C11.4576 2.59423 8.899 0.0356445 5.7294 0.0356445ZM5.7294 1.94504C7.84883 1.94504 9.54819 3.66349 9.54819 5.76383C9.54819 7.88326 7.84883 9.58262 5.7294 9.58262C3.62907 9.58262 1.91061 7.88326 1.91061 5.76383C1.91061 3.66349 3.62907 1.94504 5.7294 1.94504Z" fill="#FFB5B5"/>
<path d="M11.487 5.72232C11.487 8.88267 7.69334 13.2885 5.72232 15.3019C13.1038 -6.83132 0.893435 10.2085 0 5.72232C0 2.56197 2.57146 0 5.74351 0C8.91557 0 11.487 2.56197 11.487 5.72232Z" fill="#132743"/>
<path d="M29.1588 8.13564L25.8688 19.5456H23.2928L21.2488 12.3916L19.2048 19.5456H16.6288L13.3388 8.13564H16.0688L18.0288 15.5976L19.9888 8.13564H22.6348L24.5808 15.5696L26.5548 8.13564H29.1588ZM30.2957 7.78564H32.7877V12.1816C33.301 11.491 34.0663 11.1456 35.0837 11.1456C35.7183 11.1456 36.2783 11.295 36.7637 11.5936C37.249 11.883 37.6223 12.303 37.8837 12.8536C38.1543 13.4043 38.2897 14.053 38.2897 14.7996V19.5456H35.7977V15.2196C35.7977 14.5943 35.6717 14.1183 35.4197 13.7916C35.177 13.4556 34.8223 13.2876 34.3557 13.2876C33.8703 13.2876 33.4877 13.4696 33.2077 13.8336C32.9277 14.1976 32.7877 14.697 32.7877 15.3316V19.5456H30.2957V7.78564ZM43.8254 19.7416C43.004 19.7416 42.2667 19.555 41.6134 19.1816C40.9694 18.8176 40.4654 18.309 40.1014 17.6556C39.7374 17.0023 39.5554 16.265 39.5554 15.4436C39.5554 14.6223 39.7374 13.885 40.1014 13.2316C40.4654 12.5783 40.9694 12.0696 41.6134 11.7056C42.2667 11.3323 43.004 11.1456 43.8254 11.1456C44.6467 11.1456 45.3794 11.3323 46.0234 11.7056C46.6767 12.0696 47.1854 12.5783 47.5494 13.2316C47.9134 13.885 48.0954 14.6223 48.0954 15.4436C48.0954 15.7143 48.0767 15.9803 48.0394 16.2416H42.0334C42.1267 16.7176 42.332 17.0863 42.6494 17.3476C42.9667 17.609 43.3587 17.7396 43.8254 17.7396C44.18 17.7396 44.4927 17.6836 44.7634 17.5716C45.0434 17.4503 45.2347 17.2916 45.3374 17.0956H47.8434C47.7034 17.6183 47.442 18.0756 47.0594 18.4676C46.6767 18.869 46.2054 19.1816 45.6454 19.4056C45.0854 19.6296 44.4787 19.7416 43.8254 19.7416ZM45.6594 14.6316C45.5567 14.137 45.3467 13.7636 45.0294 13.5116C44.712 13.2503 44.3107 13.1196 43.8254 13.1196C43.34 13.1196 42.9434 13.2503 42.6354 13.5116C42.3274 13.7636 42.122 14.137 42.0194 14.6316H45.6594ZM49.5593 11.3416H52.0513V12.1816C52.5647 11.491 53.33 11.1456 54.3473 11.1456C54.7953 11.1456 55.1547 11.1923 55.4253 11.2856L55.4533 13.6236C55.0987 13.437 54.674 13.3436 54.1793 13.3436C53.5167 13.3436 52.994 13.521 52.6113 13.8756C52.238 14.2303 52.0513 14.7203 52.0513 15.3456V19.5456H49.5593V11.3416ZM60.1906 19.7416C59.3693 19.7416 58.6319 19.555 57.9786 19.1816C57.3346 18.8176 56.8306 18.309 56.4666 17.6556C56.1026 17.0023 55.9206 16.265 55.9206 15.4436C55.9206 14.6223 56.1026 13.885 56.4666 13.2316C56.8306 12.5783 57.3346 12.0696 57.9786 11.7056C58.6319 11.3323 59.3693 11.1456 60.1906 11.1456C61.0119 11.1456 61.7446 11.3323 62.3886 11.7056C63.0419 12.0696 63.5506 12.5783 63.9146 13.2316C64.2786 13.885 64.4606 14.6223 64.4606 15.4436C64.4606 15.7143 64.4419 15.9803 64.4046 16.2416H58.3986C58.4919 16.7176 58.6973 17.0863 59.0146 17.3476C59.3319 17.609 59.7239 17.7396 60.1906 17.7396C60.5453 17.7396 60.8579 17.6836 61.1286 17.5716C61.4086 17.4503 61.5999 17.2916 61.7026 17.0956H64.2086C64.0686 17.6183 63.8073 18.0756 63.4246 18.4676C63.0419 18.869 62.5706 19.1816 62.0106 19.4056C61.4506 19.6296 60.8439 19.7416 60.1906 19.7416ZM62.0246 14.6316C61.9219 14.137 61.7119 13.7636 61.3946 13.5116C61.0773 13.2503 60.6759 13.1196 60.1906 13.1196C59.7053 13.1196 59.3086 13.2503 59.0006 13.5116C58.6926 13.7636 58.4873 14.137 58.3846 14.6316H62.0246ZM70.4466 17.2496H65.3226V15.1496L69.7326 8.13564H72.8546V15.1496H74.3526V17.2496H72.8546V19.5456H70.4466V17.2496ZM70.4466 15.1496V10.7536L67.7586 15.1496H70.4466ZM79.1332 7.82764C79.9732 7.82764 80.6966 7.98164 81.3032 8.28964C81.9192 8.59764 82.3906 9.02231 82.7172 9.56364C83.0439 10.105 83.2072 10.721 83.2072 11.4116C83.2072 11.8223 83.1279 12.2236 82.9692 12.6156C82.8199 12.9983 82.5586 13.437 82.1852 13.9316C81.8212 14.417 81.3032 15.005 80.6312 15.6956L78.9932 17.3896H83.4312V19.5456H75.2692V18.0896L79.0072 14.2396C79.6512 13.577 80.0946 13.0356 80.3372 12.6156C80.5799 12.1863 80.7012 11.7943 80.7012 11.4396C80.7012 11.001 80.5706 10.6603 80.3092 10.4176C80.0572 10.1656 79.6652 10.0396 79.1332 10.0396C78.6386 10.0396 78.2466 10.2076 77.9572 10.5436C77.6772 10.8796 77.5372 11.281 77.5372 11.7476H75.0312C75.0312 11.0103 75.2039 10.343 75.5492 9.74564C75.9039 9.14831 76.3892 8.68164 77.0052 8.34564C77.6306 8.00031 78.3399 7.82764 79.1332 7.82764Z" fill="#132743"/>
</svg>
