<svg width="128" height="128" viewBox="0 0 128 128" fill="none" xmlns="http://www.w3.org/2000/svg">
<path opacity="0.4" d="M64 128C99.3459 128 128 99.3465 128 63.9999C128 28.6538 99.3459 0 64 0C28.6538 0 0 28.6538 0 63.9999C0 99.3465 28.6538 128 64 128Z" fill="#D9D9D9"/>
<path d="M63.9998 31.5513C50.7518 31.5513 39.9998 42.3033 39.9998 55.551C39.9998 68.543 50.1758 79.103 63.6798 79.487H64.2558H64.7038H64.8318C77.7598 79.039 87.9358 68.543 87.9998 55.551C87.9998 42.3033 77.2478 31.5513 63.9998 31.5513Z" fill="#132743"/>
<path d="M107.397 111.041C96.0046 121.537 80.7726 128.001 64.0046 128.001C47.2366 128.001 32.0045 121.537 20.6125 111.041C22.1485 105.217 26.3085 99.9048 32.3885 95.8088C49.8605 84.1608 78.2766 84.1608 95.6206 95.8088C101.765 99.9048 105.861 105.217 107.397 111.041Z" fill="#132743"/>
</svg>
