<svg width="97" height="62" viewBox="0 0 97 62" fill="none" xmlns="http://www.w3.org/2000/svg">
<path d="M64.6064 0H32.2021C22.4809 0 16 6.48089 16 16.2022V35.6449C16 45.3662 22.4809 51.8471 32.2021 51.8471V58.7493C32.2021 61.3416 35.0861 62.897 37.2248 61.4388L51.6447 51.8471H64.6064C74.3277 51.8471 80.8086 45.3662 80.8086 35.6449V16.2022C80.8086 6.48089 74.3277 0 64.6064 0ZM48.4043 39.4362C47.0433 39.4362 45.974 38.3345 45.974 37.0059C45.974 35.6773 47.0433 34.5756 48.4043 34.5756C49.7653 34.5756 50.8346 35.6773 50.8346 37.0059C50.8346 38.3345 49.7653 39.4362 48.4043 39.4362ZM52.4872 25.9884C51.2235 26.8309 50.8346 27.3818 50.8346 28.2891V28.9696C50.8346 30.2982 49.7329 31.3999 48.4043 31.3999C47.0757 31.3999 45.974 30.2982 45.974 28.9696V28.2891C45.974 24.5302 48.7283 22.6831 49.7653 21.9702C50.9642 21.1601 51.3531 20.6092 51.3531 19.7667C51.3531 18.1465 50.0245 16.8179 48.4043 16.8179C46.7841 16.8179 45.4555 18.1465 45.4555 19.7667C45.4555 21.0953 44.3538 22.197 43.0252 22.197C41.6966 22.197 40.5949 21.0953 40.5949 19.7667C40.5949 15.4569 44.0945 11.9572 48.4043 11.9572C52.7141 11.9572 56.2137 15.4569 56.2137 19.7667C56.2137 23.4608 53.4918 25.3079 52.4872 25.9884Z" fill="#132743"/>
</svg>
