<svg width="24" height="24" viewBox="0 0 24 24" fill="none" xmlns="http://www.w3.org/2000/svg">
<path d="M11.8608 15.0887C10.1545 15.0887 8.76978 13.7039 8.76978 11.9977C8.76978 10.2915 10.1545 8.90674 11.8608 8.90674C13.567 8.90674 14.9517 10.2915 14.9517 11.9977C14.9517 13.7039 13.567 15.0887 11.8608 15.0887ZM11.8608 10.1431C10.8387 10.1431 10.0062 10.9756 10.0062 11.9977C10.0062 13.0198 10.8387 13.8523 11.8608 13.8523C12.8828 13.8523 13.7153 13.0198 13.7153 11.9977C13.7153 10.9756 12.8828 10.1431 11.8608 10.1431Z" fill="#132743"/>
<path d="M14.5067 20.3967C14.3336 20.3967 14.1605 20.372 13.9874 20.3308C13.4764 20.1907 13.0478 19.8692 12.7757 19.4159L12.6768 19.251C12.1905 18.4103 11.5229 18.4103 11.0366 19.251L10.9459 19.4076C10.6739 19.8692 10.2453 20.1989 9.73422 20.3308C9.21494 20.4709 8.67917 20.3967 8.22582 20.1247L6.80809 19.3087C6.30529 19.0202 5.94262 18.5504 5.78601 17.9816C5.63764 17.4129 5.71182 16.8277 6.00031 16.3249C6.23935 15.9045 6.30529 15.5253 6.16517 15.2863C6.02504 15.0473 5.67061 14.9072 5.18429 14.9072C3.98087 14.9072 3 13.9263 3 12.7229V11.2722C3 10.0687 3.98087 9.08786 5.18429 9.08786C5.67061 9.08786 6.02504 8.94773 6.16517 8.7087C6.30529 8.46966 6.24759 8.0905 6.00031 7.67013C5.71182 7.16733 5.63764 6.57386 5.78601 6.01336C5.93437 5.44462 6.29705 4.97479 6.80809 4.6863L8.23406 3.87028C9.16548 3.31802 10.3936 3.63949 10.9541 4.58739L11.053 4.75224C11.5394 5.59299 12.207 5.59299 12.6933 4.75224L12.784 4.59563C13.3445 3.63949 14.5726 3.31802 15.5123 3.87852L16.93 4.69454C17.4328 4.98303 17.7955 5.45286 17.9521 6.0216C18.1005 6.59034 18.0263 7.17557 17.7378 7.67837C17.4988 8.09874 17.4328 8.47791 17.573 8.71694C17.7131 8.95598 18.0675 9.0961 18.5538 9.0961C19.7572 9.0961 20.7381 10.077 20.7381 11.2804V12.7311C20.7381 13.9345 19.7572 14.9154 18.5538 14.9154C18.0675 14.9154 17.7131 15.0555 17.573 15.2946C17.4328 15.5336 17.4905 15.9128 17.7378 16.3331C18.0263 16.8359 18.1087 17.4294 17.9521 17.9899C17.8037 18.5586 17.4411 19.0285 16.93 19.317L15.5041 20.133C15.1908 20.3061 14.8529 20.3967 14.5067 20.3967ZM11.8608 17.347C12.5944 17.347 13.2785 17.8086 13.7484 18.6246L13.839 18.7812C13.938 18.9543 14.1028 19.0779 14.3006 19.1274C14.4985 19.1768 14.6963 19.1521 14.8611 19.0532L16.2871 18.2289C16.5014 18.1053 16.6663 17.8992 16.7322 17.6519C16.7981 17.4047 16.7652 17.1491 16.6415 16.9348C16.1717 16.1271 16.114 15.2946 16.4767 14.6599C16.8394 14.0252 17.5894 13.6625 18.5291 13.6625C19.0566 13.6625 19.477 13.2421 19.477 12.7146V11.2639C19.477 10.7446 19.0566 10.316 18.5291 10.316C17.5894 10.316 16.8394 9.95333 16.4767 9.31865C16.114 8.68397 16.1717 7.85147 16.6415 7.04369C16.7652 6.82938 16.7981 6.57386 16.7322 6.32658C16.6663 6.0793 16.5097 5.88148 16.2953 5.7496L14.8694 4.93358C14.5149 4.71927 14.0451 4.84291 13.8308 5.20558L13.7401 5.36219C13.2703 6.17821 12.5862 6.6398 11.8526 6.6398C11.119 6.6398 10.4348 6.17821 9.96501 5.36219L9.87435 5.19734C9.66828 4.85115 9.20669 4.72751 8.85226 4.93358L7.42629 5.75784C7.21198 5.88148 7.04713 6.08754 6.98119 6.33482C6.91524 6.5821 6.94822 6.83762 7.07186 7.05193C7.54168 7.85971 7.59938 8.69221 7.23671 9.32689C6.87403 9.96158 6.12395 10.3243 5.18429 10.3243C4.65677 10.3243 4.23639 10.7446 4.23639 11.2722V12.7229C4.23639 13.2421 4.65677 13.6708 5.18429 13.6708C6.12395 13.6708 6.87403 14.0334 7.23671 14.6681C7.59938 15.3028 7.54168 16.1353 7.07186 16.9431C6.94822 17.1574 6.91524 17.4129 6.98119 17.6602C7.04713 17.9075 7.20374 18.1053 7.41805 18.2372L8.84402 19.0532C9.01711 19.1603 9.22318 19.1851 9.41276 19.1356C9.61058 19.0862 9.77543 18.9543 9.88259 18.7812L9.97326 18.6246C10.4431 17.8168 11.1272 17.347 11.8608 17.347Z" fill="#132743"/>
</svg>
