<svg width="24" height="24" viewBox="0 0 24 24" fill="none" xmlns="http://www.w3.org/2000/svg">
<path d="M2.32349 8.95014L11.9191 1.33154L22.1764 8.95014V21.5374L11.9191 22.8624L2.32349 21.5374V8.95014Z" fill="#132743"/>
<path d="M18.3093 23.5H6.1907C3.32326 23.5 1 21.1637 1 18.2932V10.53C1 9.10521 1.87907 7.31372 3.0093 6.43369L8.65 2.03355C10.3453 0.713506 13.0558 0.650647 14.814 1.88687L21.2814 6.42321C22.5267 7.29277 23.5 9.15759 23.5 10.6767V18.3036C23.5 21.1637 21.1767 23.5 18.3093 23.5ZM9.61279 3.26978L3.97209 7.66992C3.22907 8.25661 2.56977 9.58713 2.56977 10.53V18.2932C2.56977 20.2942 4.19186 21.9285 6.1907 21.9285H18.3093C20.3081 21.9285 21.9302 20.3047 21.9302 18.3036V10.6767C21.9302 9.67094 21.2081 8.27756 20.3814 7.71183L13.914 3.17549C12.7209 2.33736 10.7535 2.37927 9.61279 3.26978Z" fill="#132743"/>
<path d="M12.2502 19.3097C11.8211 19.3097 11.4653 18.9535 11.4653 18.5239V15.381C11.4653 14.9514 11.8211 14.5952 12.2502 14.5952C12.6793 14.5952 13.0351 14.9514 13.0351 15.381V18.5239C13.0351 18.9535 12.6793 19.3097 12.2502 19.3097Z" fill="#F6F7F9"/>
<path d="M12.2502 19.3097C11.8211 19.3097 11.4653 18.9535 11.4653 18.5239V15.381C11.4653 14.9514 11.8211 14.5952 12.2502 14.5952C12.6793 14.5952 13.0351 14.9514 13.0351 15.381V18.5239C13.0351 18.9535 12.6793 19.3097 12.2502 19.3097Z" fill="#F6F7F9"/>
</svg>
