<svg width="24" height="24" viewBox="0 0 24 24" fill="none" xmlns="http://www.w3.org/2000/svg">
<path d="M11.1251 22.5825C4.99274 22.5825 0 17.5898 0 11.4574C0 5.32501 4.99274 0.332275 11.1251 0.332275C17.2575 0.332275 22.2502 5.32501 22.2502 11.4574C22.2502 17.5898 17.2575 22.5825 11.1251 22.5825ZM11.1251 1.96034C5.88275 1.96034 1.62807 6.22587 1.62807 11.4574C1.62807 16.6889 5.88275 20.9544 11.1251 20.9544C16.3675 20.9544 20.6222 16.6889 20.6222 11.4574C20.6222 6.22587 16.3675 1.96034 11.1251 1.96034Z" fill="#FCFDFF"/>
<path d="M22.5221 23.6678C22.3159 23.6678 22.1097 23.5918 21.9469 23.429L19.7761 21.2583C19.4613 20.9435 19.4613 20.4225 19.7761 20.1078C20.0909 19.793 20.6118 19.793 20.9266 20.1078L23.0974 22.2785C23.4121 22.5933 23.4121 23.1143 23.0974 23.429C22.9346 23.5918 22.7283 23.6678 22.5221 23.6678Z" fill="#FCFDFF"/>
</svg>
