<svg width="24" height="24" viewBox="0 0 24 24" fill="none" xmlns="http://www.w3.org/2000/svg">
<path d="M11.7278 22.4536C5.81442 22.4536 1 17.6396 1 11.7268C1 5.81398 5.81442 1 11.7278 1C17.6411 1 22.4556 5.81398 22.4556 11.7268C22.4556 17.6396 17.6411 22.4536 11.7278 22.4536ZM11.7278 2.56978C6.67264 2.56978 2.56992 6.68259 2.56992 11.7268C2.56992 16.771 6.67264 20.8838 11.7278 20.8838C16.7829 20.8838 20.8856 16.771 20.8856 11.7268C20.8856 6.68259 16.7829 2.56978 11.7278 2.56978Z" fill="#132743"/>
<path d="M22.7176 23.5C22.5188 23.5 22.3199 23.4268 22.1629 23.2698L20.0697 21.1768C19.7662 20.8733 19.7662 20.371 20.0697 20.0675C20.3732 19.764 20.8756 19.764 21.1791 20.0675L23.2723 22.1605C23.5758 22.464 23.5758 22.9663 23.2723 23.2698C23.1153 23.4268 22.9165 23.5 22.7176 23.5Z" fill="#132743"/>
</svg>
